<?xml version="1.0" encoding="UTF-8" standalone="no"?>
<svg
   xmlns:dc="http://purl.org/dc/elements/1.1/"
   xmlns:cc="http://creativecommons.org/ns#"
   xmlns:rdf="http://www.w3.org/1999/02/22-rdf-syntax-ns#"
   xmlns:svg="http://www.w3.org/2000/svg"
   xmlns="http://www.w3.org/2000/svg"
   viewBox="0 0 170.88001 170.63455"
   height="170.63455"
   width="170.88"
   id="svg847"
   version="1.1">
  <metadata
     id="metadata853">
    <rdf:RDF>
      <cc:Work
         rdf:about="">
        <dc:format>image/svg+xml</dc:format>
        <dc:type
           rdf:resource="http://purl.org/dc/dcmitype/StillImage" />
        <dc:title></dc:title>
      </cc:Work>
    </rdf:RDF>
  </metadata>
  <defs
     id="defs851" />
  <g
     transform="translate(-0.48,-0.48)"
     id="layer1" />
  <g
     transform="translate(-0.48,-0.48)"
     style="display:inline"
     id="layer2">
    <path
       id="path1400"
       d="M 9.0411597,170.73406 C 7.2377104,170.16887 4.7378131,168.53812 3.4816861,167.10747 2.922887,166.47104 2.0189081,165.00749 1.4728439,163.85516 L 0.48,161.76 V 85.743405 9.7268077 L 1.6871498,7.2843062 C 3.0608123,4.504889 4.8331958,2.7423701 7.6412333,1.363362 L 9.44,0.48 h 76.48 76.48 l 1.79877,0.883362 c 2.80803,1.3790081 4.58042,3.141527 5.95408,5.9209442 L 171.36,9.7268077 V 85.76 161.79319 l -1.20715,2.4425 c -1.37366,2.77942 -3.14605,4.54194 -5.95408,5.92095 L 162.4,171.04 86.4,171.1 C 23.905706,171.1493 10.158525,171.0843 9.0411597,170.7341 Z M 51.2,105.28 V 64.32 H 38.4 25.6 v 40.96 40.96 h 12.8 12.8 z m 41.36505,17.2 c 0.132192,-26.412656 0.103916,-26.039565 2.313737,-30.530576 1.445235,-2.937139 3.800938,-5.15288 6.612603,-6.219709 1.74994,-0.663981 2.57909,-0.769715 6.03586,-0.769715 3.89511,0 4.06789,0.02986 6.17377,1.066829 3.55612,1.751094 5.48804,4.819286 6.4812,10.293171 0.34109,1.879917 0.43787,7.54882 0.44662,26.16 l 0.0112,23.76 h 12.81899 12.81899 l -0.12801,-28.08 C 146.02624,91.017267 145.99892,89.95879 145.33148,86.448675 143.81777,78.48801 141.67603,73.860515 137.6,69.743862 c -4.5085,-4.553433 -9.65306,-6.652003 -18.06845,-7.370496 -8.6539,-0.738857 -14.85949,0.802327 -20.81155,5.168637 -2.053146,1.506147 -4.957738,4.567616 -6.216077,6.551808 L 91.52,75.645299 V 69.98265 64.32 H 79.2 66.88 v 40.96 40.96 H 79.663066 92.446134 Z M 42.850893,52.513741 C 53.399299,49.230707 56.645776,35.849872 48.797952,28.002047 45.842992,25.047087 42.579891,23.695645 38.4,23.695645 c -8.344069,0 -14.72,6.356346 -14.72,14.674784 0,6.588765 4.008232,12.160387 10.163824,14.128176 2.49344,0.797088 6.473162,0.803776 9.007069,0.01514 z"
       style="fill:#000000;stroke-width:1" />
  </g>
</svg>
