<?xml version="1.0" encoding="UTF-8" standalone="no"?>
<!-- Created with Inkscape (http://www.inkscape.org/) -->

<svg
   xmlns:dc="http://purl.org/dc/elements/1.1/"
   xmlns:cc="http://creativecommons.org/ns#"
   xmlns:rdf="http://www.w3.org/1999/02/22-rdf-syntax-ns#"
   xmlns:svg="http://www.w3.org/2000/svg"
   xmlns="http://www.w3.org/2000/svg"
   xmlns:sodipodi="http://sodipodi.sourceforge.net/DTD/sodipodi-0.dtd"
   xmlns:inkscape="http://www.inkscape.org/namespaces/inkscape"
   version="1.1"
   id="svg5734"
   width="2541.2153"
   height="1380.0001"
   viewBox="0 0 2541.2153 1380.0001"
   sodipodi:docname="ssnc_logo.png"
   inkscape:version="0.92.4 (5da689c313, 2019-01-14)">
  <metadata
     id="metadata5740">
    <rdf:RDF>
      <cc:Work
         rdf:about="">
        <dc:format>image/svg+xml</dc:format>
        <dc:type
           rdf:resource="http://purl.org/dc/dcmitype/StillImage" />
        <dc:title></dc:title>
      </cc:Work>
    </rdf:RDF>
  </metadata>
  <defs
     id="defs5738" />
  <sodipodi:namedview
     pagecolor="#ffffff"
     bordercolor="#666666"
     borderopacity="1"
     objecttolerance="10"
     gridtolerance="10"
     guidetolerance="10"
     inkscape:pageopacity="0"
     inkscape:pageshadow="2"
     inkscape:window-width="1920"
     inkscape:window-height="1001"
     id="namedview5736"
     showgrid="false"
     inkscape:zoom="0.54139669"
     inkscape:cx="1266.6756"
     inkscape:cy="838.41896"
     inkscape:window-x="-9"
     inkscape:window-y="-9"
     inkscape:window-maximized="1"
     inkscape:current-layer="svg5734" />
  <path
     style="fill:#0a85c7;fill-opacity:1"
     d="M 1163.2169,690.00004 V 0 h 323.5 323.5 l 0.035,375.25 0.035,375.25004 3.8656,-15.0108 c 26.1947,-101.7228 89.3746,-185.35277 179.0644,-237.02479 77.9767,-44.92389 172.7085,-61.4997 265,-46.36869 110.3817,18.09688 208.1393,83.9686 265.9754,179.22128 l 6.7901,11.183 -95.7938,0.2549 -95.7939,0.255 -10.8389,-7.3204 c -32.0394,-21.6389 -67.5259,-34.9935 -106.8389,-40.20643 -13.9614,-1.85129 -45.19,-2.12237 -59.5,-0.51647 -80.9764,9.0873 -142.969,50.8825 -177.8921,119.9342 -8.0645,15.9454 -12.9022,28.5105 -17.695,45.9592 -14.8182,53.9479 -13.4379,115.9338 3.737,167.8146 27.1939,82.14586 92.3583,136.66416 180.3501,150.88596 15.5055,2.5061 54.8029,3.0622 70.4999,0.9977 15.6827,-2.0626 24.7153,-3.8872 37.8708,-7.6498 33.6034,-9.6109 64.3567,-25.7987 89.8463,-47.2929 l 10.2169,-8.6155 h 91.0331 c 50.0681,0 91.0323,0.3375 91.0314,0.75 0,1.2416 -12.2815,23.1727 -19.0088,33.9513 -25.4635,40.7974 -59.2809,77.1675 -98.0719,105.4749 -114.9631,83.8933 -273.4998,98.1391 -404.5007,36.3477 -42.3723,-19.9864 -84.9191,-51.2311 -115.8312,-85.0619 -43.901,-48.046 -73.2821,-102.4361 -89.6513,-165.96206 l -3.8652,-15 -0.035,226.25006 -0.035,226.25 h -323.5 -323.5 V 690.00004 Z m 507,321.50006 V 886.00004 h -68.261 -68.2611 l -16.7349,-16.7567 -16.7349,-16.7567 6.246,-2.3629 c 12.2252,-4.6251 32.429,-15.0961 44.2476,-22.9323 31.6109,-20.9592 49.9059,-46.6526 57.1004,-80.1914 2.5715,-11.988 2.6119,-39.1786 0.076,-50.9526 -9.3863,-43.5744 -38.2453,-75.4628 -81.6162,-90.1838 -31.5066,-10.69404 -74.3083,-10.15894 -107.0049,1.3378 -46.7416,16.4351 -77.8306,52.3026 -85.5979,98.7543 -2.2243,13.3021 -1.546,37.2371 1.4217,50.1738 5.253,22.8977 17.9235,48.7081 34.6919,70.6691 l 3.3375,4.371 -12.884,6.3549 c -23.3084,11.4966 -39.0993,22.6681 -54.5839,38.6163 -18.9162,19.4825 -30.3082,40.6428 -36.1196,67.091 -2.6073,11.8657 -2.6112,47.5757 -0.01,59.76826 10.8763,50.914 44.6321,87.6775 96.3956,104.9844 21.1299,7.0647 40.0714,10.0156 64.2886,10.0156 54.7519,0 101.9269,-18.8869 148.3271,-59.3842 l 6.8272,-5.9586 42.1714,42.1714 c 23.1942,23.1943 42.2845,42.1714 42.4228,42.1714 0.1383,0 0.2515,-56.475 0.2515,-125.5 z m -246,31.3264 c -29.795,-4.248 -55.7331,-24.391 -63.8832,-49.61066 -12.797,-39.599 8.1073,-79.5402 53.3449,-101.9243 l 7.621,-3.771 56.1363,56.2362 56.1363,56.23624 -2.4277,2.61752 c -1.3352,1.4396 -5.5776,5.189 -9.4276,8.3319 -31.42,25.6497 -64.7591,36.5521 -97.5,31.8841 z m 21.9755,-246.43176 c -19.0911,-22.4219 -27.3292,-37.8838 -30.0315,-56.365 -3.1979,-21.8709 3.7136,-43.3431 18.1959,-56.5297 10.6377,-9.686 23.8714,-14.5 39.8601,-14.5 26.7853,0 46.6347,13.9277 54.1565,38 1.9116,6.1178 2.3322,9.6193 2.2822,19 -0.034,6.325 -0.6323,13.525 -1.3301,16 -5.7105,20.2539 -21.9247,36.9584 -48.9854,50.4667 -8.7182,4.3519 -25.5446,11.5333 -27.0234,11.5333 -0.3569,0 -3.5628,-3.4224 -7.1243,-7.6053 z M 279.21681,1230.9482 c -34.82467,-2.103 -72.65023,-10.0694 -102.31557,-21.5487 -15.28298,-5.9138 -40.44475,-18.7817 -53.63988,-27.4318 -18.10546,-11.8689 -33.648591,-24.7625 -49.54455,-41.0988 -22.02255,-22.6326 -39.38398,-47.0391 -53.89255,-75.7613 -6.88085,-13.6219 -17.64069,-39.0965 -19.15788,-45.3575 L 0,1017.0001 h 80.9918 80.9918 l 6.16296,8.4825 c 27.53595,37.8997 68.65078,62.0368 117.69909,69.0972 14.57023,2.0974 42.54675,2.0704 56.68214,-0.055 33.45137,-5.0289 62.26976,-19.8899 77.27233,-39.8478 10.61063,-14.1152 15.5513,-28.547 15.63749,-45.6773 0.14767,-29.34996 -15.0535,-51.05516 -50.56575,-72.20116 -21.0637,-12.5421 -49.45127,-24.411 -101.15505,-42.2927 -74.69757,-25.8341 -100.33239,-35.4705 -127,-47.7406 -75.82177,-34.8866 -116.95183,-79.8392 -130.10396,-142.1957 -3.16798,-15.0199 -4.40115,-46.4791 -2.43975,-62.24 6.15331,-49.44499 33.76716,-96.31779 77.54371,-131.62557 47.46583,-38.28336 110.77824,-60.77652 179,-63.5938 112.71617,-4.65471 209.43568,41.55791 266.61726,127.38983 11.76279,17.65644 27.75287,51.12654 31.41153,65.75004 l 0.68803,2.75 h -79.9319 -79.9319 l -4.9176,-7.25 c -6.99302,-10.3098 -23.18729,-26.1546 -34.32734,-33.5865 -27.95011,-18.64658 -61.80404,-27.58714 -97.64856,-25.78825 -25.22016,1.26569 -44.6854,5.68824 -61.98509,14.08317 -26.83296,13.02108 -41.20811,31.75628 -44.46291,57.94888 -4.10259,33.0149 15.72681,57.3801 64.74718,79.5572 18.15437,8.2131 38.98217,15.9151 85.2413,31.5217 102.15636,34.4648 147.65404,54.9038 185.77175,83.4548 24.93328,18.6755 45.25327,41.9507 57.60084,65.978 14.48375,28.1841 20.84008,55.8111 21.01318,91.33106 l 0.0816,16.75 71.51631,0.018 71.5163,0.018 3.17996,4.8646 c 5.70398,8.7257 18.42394,23.0923 27.21343,30.7364 24.93013,21.6811 55.35003,35.8792 88.60661,41.356 20.35437,3.352 50.28985,2.9132 69.68915,-1.0215 46.015,-9.3331 76.60035,-35.2343 83.36676,-70.599 4.8147,-25.16432 -2.9788,-47.35726 -23.37976,-66.57656 -22.6166,-21.3067 -54.3032,-36.1341 -141.67613,-66.2956 -77.63664,-26.8005 -112.41663,-40.9366 -141.78812,-57.6291 -54.67159,-31.071 -86.91478,-70.1621 -99.28491,-120.3713 -8.21502,-33.3441 -7.05148,-69.6126 3.27228,-102 25.06075,-78.61998 104.05351,-139.79481 203.30075,-157.44344 28.09742,-4.99642 68.12212,-6.73558 94.50003,-4.10622 30.8613,3.07628 60.3547,10.21652 89.00005,21.54663 10.2801,4.06608 34.65831,16.56298 45.00001,23.06809 53.3067,33.53093 93.9924,84.46586 113.5743,142.18494 l 2.7989,8.25 -80.1866,-0.043 -80.18661,-0.043 -4,-6.1675 c -2.20005,-3.3922 -8.02435,-10.3827 -12.94285,-15.5346 -34.6312,-36.27465 -84.54342,-51.2283 -142.34296,-42.64589 -41.96182,6.23073 -71.10158,26.45239 -80.81206,56.07979 -2.5759,7.8592 -2.90221,10.2602 -2.90221,21.3548 0,9.6027 0.43477,13.7747 1.87581,18 9.25823,27.1457 39.75661,47.5081 107.12419,71.522 8.8,3.1369 31.075,10.785 49.50003,16.9957 71.4761,24.0935 109.49466,39.5284 141.52306,57.4561 67.0326,37.5212 101.6412,83.0487 112.1449,147.5262 2.5102,15.4084 2.5106,50.58656 9e-4,66.00006 -10.0811,61.9132 -42.0889,110.8433 -96.1688,147.0122 -49.7037,33.2422 -114.58806,50.7098 -188.50009,50.7467 -32.69838,0.016 -54.67017,-2.2317 -81.65648,-8.3544 -91.12751,-20.6753 -160.91604,-75.3202 -202.92584,-158.8924 l -5.70424,-11.3477 -2.85169,9.6291 c -27.36154,92.39 -115.72555,154.9965 -235.86175,167.1096 -19.23556,1.9395 -49.07377,2.6275 -67,1.545 z"
     id="path5746"
     inkscape:connector-curvature="0" />
</svg>
