<svg xmlns="http://www.w3.org/2000/svg" xmlns:xlink="http://www.w3.org/1999/xlink" width="400" height="400">
    <path d="M135.5 299.885c-35.2-27.48-68.823-53.66-74.719-58.175l-10.719-8.21-.03-33.334L50 166.832l3.75 2.937c43.14 33.79 144.675 112.457 145.614 112.817.698.268 5.065-2.475 9.703-6.097C232.134 258.48 241.926 251 242.437 251c.31 0 .563 14.738.562 32.75v32.75l-12.206 9.5c-27.806 21.641-30.865 23.997-31.074 23.925-.12-.041-29.019-22.56-64.219-50.04zm118.162-74.844C224.69 202.47 200.502 184 199.915 184c-.586 0-5.63 3.574-11.21 7.941-5.946 4.656-10.569 7.61-11.173 7.138-.568-.442-10.203-7.916-21.412-16.61-18.762-14.552-20.23-15.915-18.5-17.176 1.034-.753 4.355-3.298 7.38-5.653 3.025-2.356 14.95-11.637 26.5-20.624 11.55-8.987 22.683-17.651 24.74-19.254l3.741-2.915 53.551 41.664c37.913 29.497 53.904 41.384 54.76 40.704.664-.528 9.758-7.609 20.208-15.735 10.45-8.127 19.563-15.214 20.25-15.75.995-.776 1.241 5.842 1.208 32.398l-.042 33.372-20.435 15.773c-11.24 8.675-21.044 16.006-21.787 16.291-.773.297-23.9-17.048-54.032-40.523z" /></svg>
