<svg xmlns="http://www.w3.org/2000/svg" width="300.591" height="346.758"><path d="M-44.85 173.336v-197.44h1277.44v394.88H-44.85z" fill="#fefefe"/><path d="M75.158 303.568C33.134 279.284.348 260.147.221 259.826c-.299-.755-.292-172.24.006-172.997C.498 86.139 149.137.17 150.351 0c.595-.083 19.944 10.95 75.52 43.06l74.72 43.173v174.28l-74.698 43.132c-41.083 23.722-74.995 43.123-75.36 43.113-.364-.01-34.283-19.446-75.375-43.19z" fill="#91bedb"/><path d="M75.834 303.76c-40.896-23.641-74.628-43.216-74.96-43.5-.589-.505-.603-2.647-.603-86.87 0-81.845.029-86.38.56-86.838C1.454 86.014 149.62.43 150.172.287c.507-.129 149.445 85.938 149.533 86.411.042.226-26.81 15.904-62.064 36.238a266072.979 266072.979 0 00-74.26 42.843c-9.996 5.775-12.047 7.076-11.696 7.418.234.229 33.757 19.656 74.496 43.173 40.739 23.516 74.178 42.93 74.31 43.141.134.217 0 .609-.31.896-.742.688-148.75 86.087-149.444 86.226-.3.06-34.007-19.233-74.903-42.873z" fill="#949ca8"/><path d="M146.66 344.275C122.704 330.542 1.572 260.488 1.15 260.123c-.53-.46-.56-4.994-.56-86.787 0-81.792.03-86.326.56-86.787.5-.435 146.071-84.565 148.468-85.805l.975-.504 74.519 43.03c40.985 23.667 74.552 43.21 74.592 43.428.042.226-31.83 18.8-73.717 42.958-40.584 23.408-74.01 42.717-74.277 42.908-.414.296-.35.442.437.989.508.353 33.828 19.62 74.044 42.818 40.216 23.197 73.403 42.443 73.75 42.77.55.518.57.647.16 1.026-.49.45-148.26 85.789-149.12 86.117-.284.108-2.1-.735-4.32-2.009z" fill="#5e95bd"/><path d="M146.66 344.275C122.684 330.53 1.572 260.488 1.15 260.123c-.532-.462-.556-4.901-.48-86.752l.08-86.266.96-.453c.529-.249 33.971-19.51 74.317-42.804 40.347-23.293 73.503-42.352 73.68-42.352.217 0 .324 28.097.324 85.38 0 67.813.082 85.485.4 85.897.22.285 33.88 19.835 74.8 43.446 40.92 23.61 74.596 43.118 74.837 43.35.367.357.316.5-.32.903-1.619 1.024-148.306 85.636-148.767 85.812-.284.108-2.1-.736-4.32-2.009z" fill="#505e70"/><path d="M144.903 342.935c-3.076-1.76-36.696-21.167-74.712-43.124L1.07 259.887.99 173.828c-.044-47.332.04-86.18.189-86.328.207-.207 101.153 57.84 155.732 89.55 4.224 2.454 38.1 22.022 75.28 43.485 37.18 21.462 67.596 39.17 67.591 39.352-.004.181-21.347 12.641-47.428 27.69-26.081 15.047-59.583 34.38-74.448 42.96-14.865 8.58-27.114 15.6-27.22 15.6-.105 0-2.707-1.441-5.783-3.202z" fill="#2d4f6f"/><path d="M147.31 344.168C130.988 334.842 1.93 260.22 1.629 259.93c-.317-.302 15.439-9.53 73.983-43.329 40.912-23.62 74.573-42.939 74.803-42.93.602.023 149.133 85.862 149.179 86.213.052.407-147.969 85.89-148.762 85.911-.352.009-1.936-.723-3.52-1.628z" fill="#23344b"/><path d="M150.883 324.616c-.323-31.773-.26-150.32.08-150.32.238 0 144.725 83.275 147.645 85.095l.897.56-74.08 42.773c-40.743 23.525-74.135 42.772-74.204 42.772-.069 0-.22-9.396-.338-20.88z" fill="#18263b"/></svg>
