<svg xmlns="http://www.w3.org/2000/svg" width="244.238" height="409.865"><path d="M93.558 409.396c-43.43-3.31-69.982-23.103-81.241-60.562-2.284-7.597-2.753-11.323-3.161-25.098-.453-15.29-.334-16.684 2.18-25.444 1.461-5.097 4.368-12.893 6.46-17.324 8.758-18.558 30.053-41.76 51.612-56.232 10.154-6.817 128.732-74.425 129.385-73.77 1.488 1.49.24 24.143-1.742 31.645-7.555 28.58-26.518 50.057-64.729 73.31-26.068 15.863-37.594 25.836-44.846 38.803-7.63 13.645-10.9 30.185-8.61 43.557 4.494 26.237 31.059 51.372 67.822 64.172 5.105 1.778 9.136 3.377 8.959 3.554-.178.177-5.479.979-11.781 1.781-15.194 1.935-36.909 2.628-50.308 1.608zM.354 278.116c-.383-.988-.469-9.538-.191-19 1.176-40.066 12.015-68.153 39.442-102.204 9.52-11.817 28.373-30.354 40.303-39.626 4.675-3.633 41.35-29.904 81.5-58.378 40.15-28.475 75.212-53.378 77.915-55.34L244.238 0l-.648 13.956c-1.561 33.612-6.13 49.956-19.435 69.54-17.393 25.598-34.539 38.868-94.747 73.33-72.34 41.406-101.32 66.481-120.242 104.04-2.507 4.975-5.359 11.296-6.337 14.046-1.364 3.831-1.943 4.58-2.475 3.204z" fill="#e0b00e"/></svg>
