<svg xmlns="http://www.w3.org/2000/svg" width="417.799" height="575.526"><g fill="none" stroke="#000" stroke-width="20" stroke-linecap="round"><path d="M209.032 320.043a200 250 0 01-4.133 50.56M160.035 320.043A151.002 188.753 0 0170.45 492.478M258.03 320.043a248.998 311.247 0 01-92.299 241.885M109.833 320.043a99.2 123.999 0 0193.103-123.764 99.2 123.999 0 01104.546 108.553"/><path d="M160.035 320.043a48.998 61.247 0 0148.997-61.247 48.998 61.247 0 0148.998 61.247M291.647 442.83A299.2 373.999 0 01234.84 565.41M10.012 295.325a200 250 0 0194.28-188.256M60.033 320.043a149 186.249 0 014.433-45.092M352.466 495.052a151.002 188.753 0 01-58.714-53.095M384.646 442.302a100.8 126.001 0 01-74.703-99.136M400.176 382.826a51 63.751 0 01-42.145-62.783M109.828 321.353a100.8 126.001 0 01-75.082 120.523M65.89 62.409a264.238 330.297 0 01289.24 2.416M196.619 406.747a200 250 0 01-87.587 129.803"/><path d="M75.225 238.11a149 186.249 0 01167.45-99.506 149 186.249 0 01115.356 181.44M374.166 179.004a200 250 0 0133.619 113.163M60.033 320.043a51 63.751 0 01-43.635 63.083M141.899 84.548a200 250 0 01206.879 56.648"/></g></svg>