<svg xmlns="http://www.w3.org/2000/svg" width="43.439" height="42.366"><path d="M21.717 0C9.724 0 0 9.724 0 21.72c0 9.596 6.223 17.736 14.853 20.61 1.087.198 1.483-.473 1.483-1.049 0-.514-.019-1.881-.03-3.693-6.04 1.312-7.315-2.912-7.315-2.912-.988-2.508-2.412-3.176-2.412-3.176-1.972-1.348.149-1.321.149-1.321 2.18.154 3.327 2.238 3.327 2.238 1.937 3.319 5.084 2.36 6.321 1.806.197-1.404.757-2.362 1.379-2.904-4.823-.548-9.894-2.412-9.894-10.735 0-2.37.847-4.31 2.236-5.828-.224-.55-.969-2.757.212-5.748 0 0 1.824-.584 5.974 2.227a20.802 20.802 0 015.437-.731c1.844.008 3.703.25 5.437.73 4.147-2.81 5.967-2.226 5.967-2.226 1.185 2.99.44 5.199.216 5.748 1.392 1.519 2.233 3.457 2.233 5.828 0 8.344-5.078 10.18-9.917 10.717.78.671 1.475 1.996 1.475 4.023 0 2.903-.027 5.245-.027 5.957 0 .582.39 1.258 1.493 1.046C37.221 39.448 43.44 31.313 43.44 21.72 43.439 9.724 33.713 0 21.717 0" fill="#1b1817" fill-rule="evenodd"/></svg>
