<svg xmlns="http://www.w3.org/2000/svg" width="161.035" height="157.058"><path d="M80.517 0C36.055 0 0 36.047 0 80.517c0 35.574 23.07 65.755 55.063 76.402 4.024.745 5.501-1.747 5.501-3.874 0-1.918-.075-8.262-.11-14.99-22.4 4.87-27.126-9.5-27.126-9.5-3.663-9.306-8.94-11.782-8.94-11.782-7.305-4.997.55-4.894.55-4.894 8.086.568 12.343 8.298 12.343 8.298 7.182 12.308 18.836 8.75 23.431 6.692.724-5.202 2.81-8.756 5.112-10.766-17.884-2.035-36.684-8.94-36.684-39.792 0-8.79 3.145-15.974 8.296-21.612-.836-2.028-3.592-10.218.781-21.308 0 0 6.762-2.163 22.147 8.254 6.423-1.784 13.31-2.678 20.153-2.71 6.843.032 13.736.926 20.171 2.71 15.368-10.417 22.12-8.254 22.12-8.254 4.383 11.09 1.627 19.28.79 21.308 5.163 5.638 8.286 12.822 8.286 21.612 0 30.926-18.836 37.734-36.765 39.728 2.888 2.498 5.461 7.398 5.461 14.91 0 10.774-.092 19.444-.092 22.096 0 2.144 1.448 4.654 5.53 3.864 31.975-10.658 55.017-40.829 55.017-76.392C161.035 36.047 124.985 0 80.517 0" fill="#1b1817" fill-rule="evenodd"/><path d="M30.497 115.604c-.178.402-.807.522-1.38.247-.586-.264-.912-.81-.723-1.21.173-.411.803-.526 1.387-.251.584.262.917.813.716 1.214M33.758 119.242c-.384.356-1.136.19-1.644-.372-.528-.561-.625-1.313-.236-1.673.396-.356 1.124-.19 1.65.372.529.568.632 1.312.23 1.673M36.933 123.879c-.494.344-1.302.023-1.8-.693-.494-.718-.494-1.576.012-1.92.498-.344 1.294-.034 1.8.676.492.728.492 1.586-.012 1.937M41.282 128.36c-.442.486-1.382.355-2.07-.31-.704-.648-.9-1.57-.458-2.056.448-.488 1.393-.35 2.086.308.7.648.911 1.576.442 2.057M47.282 130.96c-.196.632-1.1.917-2.012.649-.91-.276-1.507-1.013-1.323-1.65.19-.635 1.099-.934 2.017-.647.91.274 1.507 1.008 1.318 1.649M53.872 131.443c.022.664-.751 1.214-1.708 1.226-.963.022-1.743-.516-1.754-1.169 0-.67.758-1.215 1.719-1.232.957-.019 1.743.516 1.743 1.175M60.003 130.4c.115.646-.55 1.312-1.501 1.49-.935.171-1.8-.23-1.919-.872-.116-.664.56-1.329 1.495-1.5.952-.166 1.804.223 1.925.882" fill="#1b1817"/></svg>
