<svg xmlns="http://www.w3.org/2000/svg" height="172.8" width="203.2"><path d="M187.932 172.035c-3.323-1.085-5.932-3.397-7.402-6.557-.696-1.497-.836-2.253-.833-4.518.004-3.63 1.04-6 3.7-8.463 2.379-2.202 4.56-3.057 7.803-3.057 4.606 0 8.374 2.395 10.472 6.658.931 1.892 1.045 2.414 1.023 4.695-.065 6.497-4.621 11.312-10.956 11.579-1.5.063-2.985-.069-3.807-.337zm7.667-1.716c2.125-.93 4.129-2.932 5.148-5.143.545-1.182.69-2.1.688-4.376 0-2.495-.114-3.095-.85-4.493-1.036-1.97-3.321-4.132-5.329-5.042-2.26-1.024-6.033-.96-8.376.14-2.115.994-3.923 2.747-5.07 4.915-.744 1.405-.847 1.97-.848 4.64 0 2.556.116 3.259.733 4.414 2.828 5.303 8.49 7.317 13.904 4.945zm-8.399-9.359v-6.08h3.335c3.1 0 3.404.057 4.297.809 1.946 1.637 1.477 4.504-.902 5.519l-1.296.552 1.769 2.64c1.725 2.576 1.749 2.64.955 2.64-.669 0-1.123-.481-2.567-2.72-1.651-2.56-1.82-2.72-2.873-2.72H188.8v2.72c0 2.688-.009 2.72-.8 2.72h-.8zm6.329-1.138c.528-.37.711-.82.711-1.749 0-1.59-.565-1.913-3.339-1.913H188.8v4.16h2.009c1.3 0 2.26-.176 2.72-.498zM9.04 170.734c-1.803-.565-4.303-2.196-5.56-3.627-.558-.636-1.462-2.1-2.008-3.252L.48 161.76V9.727l1.207-2.443c1.374-2.78 3.146-4.542 5.954-5.92L9.44.48H162.4l1.799.883c2.808 1.38 4.58 3.142 5.954 5.921l1.207 2.443v152.066l-1.207 2.443c-1.374 2.78-3.146 4.542-5.954 5.92l-1.799.884-76 .06c-62.494.05-76.241-.016-77.359-.366zM51.2 105.28V64.32H25.6v81.92h25.6zm41.365 17.2c.132-26.413.104-26.04 2.314-30.53 1.445-2.938 3.8-5.153 6.612-6.22 1.75-.664 2.58-.77 6.036-.77 3.895 0 4.068.03 6.174 1.067 3.556 1.75 5.488 4.82 6.481 10.293.341 1.88.438 7.549.447 26.16l.011 23.76h25.638l-.128-28.08c-.124-27.143-.151-28.201-.819-31.711-1.513-7.961-3.655-12.588-7.731-16.705-4.508-4.554-9.653-6.652-18.068-7.37-8.654-.74-14.86.802-20.812 5.168-2.053 1.506-4.958 4.568-6.216 6.552l-.984 1.551V64.32H66.88v81.92h25.566zM42.851 52.514c10.548-3.283 13.795-16.664 5.947-24.512-2.955-2.955-6.218-4.306-10.398-4.306-8.344 0-14.72 6.356-14.72 14.674 0 6.59 4.008 12.16 10.164 14.129 2.493.797 6.473.803 9.007.015z"/></svg>
