<svg xmlns="http://www.w3.org/2000/svg" width="170.88" height="170.635"><path d="M8.561 170.254c-1.803-.565-4.303-2.196-5.56-3.627-.558-.636-1.462-2.1-2.008-3.252L0 161.28V9.247l1.207-2.443c1.374-2.78 3.146-4.542 5.954-5.92L8.96 0h152.96l1.799.883c2.808 1.38 4.58 3.142 5.954 5.921l1.207 2.443v152.066l-1.207 2.443c-1.374 2.78-3.146 4.542-5.954 5.92l-1.799.884-76 .06c-62.494.05-76.241-.016-77.359-.366zM50.72 104.8V63.84h-25.6v81.92h25.6zM92.085 122c.132-26.413.104-26.04 2.314-30.53 1.445-2.938 3.8-5.153 6.612-6.22 1.75-.664 2.58-.77 6.036-.77 3.895 0 4.068.03 6.174 1.067 3.556 1.75 5.488 4.82 6.481 10.293.341 1.88.438 7.549.447 26.16l.011 23.76h25.638l-.128-28.08c-.124-27.143-.151-28.201-.819-31.711-1.513-7.961-3.655-12.588-7.731-16.705-4.508-4.554-9.653-6.652-18.068-7.37-8.654-.74-14.86.802-20.812 5.168-2.053 1.506-4.958 4.568-6.216 6.552l-.984 1.551V63.84H66.4v81.92h25.566zM42.371 52.034c10.548-3.283 13.795-16.664 5.947-24.512-2.955-2.955-6.218-4.306-10.398-4.306-8.344 0-14.72 6.356-14.72 14.674 0 6.59 4.008 12.16 10.164 14.129 2.493.797 6.473.803 9.007.015z"/></svg>
