<svg xmlns="http://www.w3.org/2000/svg" width="499.002" height="379.002"><g fill="none" stroke="#000" stroke-width="20" stroke-linecap="round" stroke-linejoin="round"><path d="M10.001 63.501a53.5 53.5 0 0153.5-53.5M435.501 10.001a53.5 53.5 0 0153.5 53.5M489.001 315.501a53.5 53.5 0 01-53.5 53.5M63.501 369.001a53.5 53.5 0 01-37.83-15.67A53.5 53.5 0 0110 315.501M10.001 63.501v252M63.5 369.001H435.5M489.001 315.501v-252M435.501 10.001h-372"/><path d="M25.249 26.098l224.252 236.735L473.753 26.098M24.78 352.42l150.086-168.377M324.136 184.043L474.221 352.42"/></g></svg>