<svg xmlns:osb="http://www.openswatchbook.org/uri/2009/osb" xmlns="http://www.w3.org/2000/svg" height="728" width="728"><defs><linearGradient id="a" osb:paint="solid"><stop offset="0"/></linearGradient></defs><g transform="translate(-760)"><circle r="364" cy="364" cx="1124" fill="#1f3f70"/><circle r="52.384" cy="428.857" cx="1124" fill="#f78f20"/><path d="M1124.86 117.375a33.56 33.56 0 00-28.41 15.725l-.015-.008-207.342 330.345.034.022a33.56 33.56 0 00-5.168 17.818 33.56 33.56 0 0033.558 33.559 33.56 33.56 0 0028.39-15.74l.036.021 178.916-285.059 178.918 285.059.033-.021a33.56 33.56 0 0028.39 15.74 33.56 33.56 0 0033.56-33.559 33.56 33.56 0 00-5.169-17.818l.033-.022-207.342-330.345-.032.021a33.56 33.56 0 00-28.39-15.738z" fill="#fff"/></g></svg>
