<svg xmlns="http://www.w3.org/2000/svg" width="2541.215" height="1380"><path d="M1163.217 690V0h647l.035 375.25.035 375.25 3.866-15.01c26.194-101.724 89.374-185.354 179.064-237.026 77.977-44.923 172.708-61.5 265-46.368 110.382 18.097 208.14 83.968 265.975 179.221l6.79 11.183-95.793.255-95.794.255-10.84-7.32c-32.039-21.64-67.525-34.994-106.838-40.207-13.962-1.851-45.19-2.122-59.5-.516-80.977 9.087-142.97 50.882-177.892 119.934-8.065 15.945-12.902 28.51-17.695 45.959-14.818 53.948-13.438 115.934 3.737 167.815 27.194 82.146 92.358 136.664 180.35 150.886 15.505 2.506 54.803 3.062 70.5.997 15.682-2.062 24.715-3.887 37.87-7.65 33.604-9.61 64.357-25.798 89.847-47.292l10.217-8.616h91.033c50.068 0 91.032.338 91.031.75 0 1.242-12.281 23.173-19.009 33.951-25.463 40.798-59.28 77.168-98.071 105.475-114.964 83.894-273.5 98.14-404.501 36.348-42.372-19.986-84.92-51.231-115.831-85.062-43.901-48.046-73.282-102.436-89.652-165.962l-3.865-15-.035 226.25-.035 226.25h-647V690zm507 321.5V886h-136.522l-16.735-16.757-16.735-16.756 6.246-2.363c12.225-4.625 32.429-15.096 44.248-22.933 31.61-20.959 49.906-46.652 57.1-80.191 2.572-11.988 2.612-39.179.076-50.953-9.386-43.574-38.245-75.462-81.616-90.183-31.507-10.694-74.308-10.16-107.005 1.337-46.742 16.436-77.83 52.303-85.598 98.755-2.224 13.302-1.546 37.237 1.422 50.174 5.253 22.897 17.923 48.708 34.692 70.669l3.337 4.37-12.884 6.356c-23.308 11.496-39.1 22.668-54.584 38.616-18.916 19.482-30.308 40.643-36.12 67.09-2.607 11.867-2.61 47.577-.01 59.77 10.877 50.913 44.633 87.677 96.396 104.983 21.13 7.065 40.072 10.016 64.289 10.016 54.752 0 101.927-18.887 148.327-59.384l6.827-5.959 42.172 42.172c23.194 23.194 42.284 42.171 42.422 42.171.139 0 .252-56.475.252-125.5zm-246 31.326c-29.795-4.248-55.733-24.39-63.883-49.61-12.797-39.6 8.107-79.54 53.345-101.924l7.62-3.771 56.137 56.236 56.136 56.236-2.428 2.617c-1.335 1.44-5.577 5.19-9.427 8.332-31.42 25.65-64.76 36.552-97.5 31.884zm21.975-246.431c-19.09-22.422-27.329-37.884-30.031-56.365-3.198-21.871 3.713-43.343 18.196-56.53 10.637-9.686 23.871-14.5 39.86-14.5 26.785 0 46.635 13.928 54.156 38 1.912 6.118 2.333 9.62 2.283 19-.034 6.325-.633 13.525-1.33 16-5.711 20.254-21.925 36.958-48.986 50.467-8.718 4.352-25.544 11.533-27.023 11.533-.357 0-3.563-3.422-7.125-7.605zM279.217 1230.948c-34.825-2.103-72.65-10.07-102.316-21.549-15.283-5.913-40.445-18.781-53.64-27.431-18.105-11.87-33.648-24.763-49.544-41.1-22.023-22.632-39.384-47.038-53.893-75.76-6.88-13.622-17.64-39.097-19.158-45.358L0 1017h161.984l6.163 8.483c27.536 37.9 68.65 62.036 117.699 69.097 14.57 2.097 42.546 2.07 56.682-.055 33.451-5.03 62.27-19.89 77.272-39.848 10.61-14.115 15.551-28.547 15.638-45.677.147-29.35-15.054-51.055-50.566-72.201-21.064-12.543-49.451-24.411-101.155-42.293-74.698-25.834-100.333-35.47-127-47.74-75.822-34.887-116.952-79.84-130.104-142.196-3.168-15.02-4.401-46.48-2.44-62.24 6.153-49.445 33.767-96.318 77.544-131.626 47.466-38.283 110.778-60.777 179-63.594 112.716-4.655 209.435 41.558 266.617 127.39 11.763 17.656 27.753 51.127 31.412 65.75l.688 2.75H419.57l-4.918-7.25c-6.993-10.31-23.187-26.155-34.327-33.586-27.95-18.647-61.804-27.588-97.649-25.789-25.22 1.266-44.685 5.689-61.985 14.083-26.833 13.022-41.208 31.757-44.463 57.95-4.102 33.014 15.727 57.38 64.748 79.557 18.154 8.213 38.982 15.915 85.24 31.521 102.157 34.465 147.655 54.904 185.773 83.455 24.933 18.676 45.253 41.95 57.6 65.978 14.484 28.184 20.84 55.811 21.014 91.331l.081 16.75 71.516.018 71.517.018 3.18 4.865c5.704 8.725 18.424 23.092 27.213 30.736 24.93 21.681 55.35 35.88 88.607 41.356 20.354 3.352 50.29 2.913 69.689-1.021 46.015-9.334 76.6-35.235 83.367-70.6 4.814-25.164-2.98-47.357-23.38-66.576-22.617-21.307-54.303-36.134-141.676-66.296-77.637-26.8-112.417-40.936-141.788-57.629-54.672-31.07-86.915-70.162-99.285-120.371-8.215-33.344-7.052-69.613 3.272-102 25.06-78.62 104.054-139.795 203.3-157.443 28.098-4.997 68.123-6.736 94.5-4.107 30.862 3.077 60.356 10.217 89 21.547 10.281 4.066 34.66 16.563 45 23.068 53.308 33.531 93.993 84.466 113.575 142.185l2.8 8.25-80.187-.043-80.187-.043-4-6.167c-2.2-3.393-8.024-10.383-12.943-15.535-34.631-36.275-84.543-51.228-142.343-42.646-41.962 6.23-71.101 26.452-80.812 56.08-2.576 7.859-2.902 10.26-2.902 21.355 0 9.602.435 13.774 1.876 18 9.258 27.145 39.756 47.508 107.124 71.522 8.8 3.137 31.075 10.785 49.5 16.995 71.476 24.094 109.495 39.529 141.523 57.456 67.033 37.522 101.641 83.05 112.145 147.527 2.51 15.408 2.51 50.586 0 66-10.08 61.913-42.088 110.843-96.168 147.012-49.704 33.242-114.588 50.71-188.5 50.747-32.699.016-54.67-2.232-81.657-8.355-91.127-20.675-160.916-75.32-202.926-158.892l-5.704-11.348-2.851 9.63c-27.362 92.39-115.726 154.996-235.862 167.109-19.236 1.94-49.074 2.627-67 1.545z" fill="#0a85c7"/></svg>